<svg xmlns="http://www.w3.org/2000/svg" version="1.1" xmlns:xlink="http://www.w3.org/1999/xlink" width="2000" height="159" viewBox="0 0 2000 159"><svg xml:space="preserve" width="2000" height="159" data-version="2" data-id="lg_sYAifKSBaj7uXg3fje" viewBox="0 0 159 159" x="0" y="0"><rect width="100%" height="100%" fill="transparent"></rect><path fill="#1f299c" d="M48.105 157.305h-37.44c-5.161 0-9.36-4.199-9.36-9.36v-37.44c0-5.161 4.199-9.36 9.36-9.36h37.44c5.161 0 9.36 4.199 9.36 9.36v37.44c0 5.161-4.199 9.36-9.36 9.36m-37.44-49.92c-1.72 0-3.12 1.4-3.12 3.12v37.44c0 1.72 1.4 3.12 3.12 3.12h37.44c1.72 0 3.12-1.4 3.12-3.12v-37.44c0-1.72-1.4-3.12-3.12-3.12zm137.28-49.92h-37.44c-5.161 0-9.36-4.199-9.36-9.36v-37.44c0-5.161 4.199-9.36 9.36-9.36h37.44c5.161 0 9.36 4.199 9.36 9.36v37.44c0 5.161-4.199 9.36-9.36 9.36m-37.44-49.92c-1.72 0-3.12 1.4-3.12 3.12v37.44c0 1.72 1.4 3.12 3.12 3.12h37.44c1.72 0 3.12-1.4 3.12-3.12v-37.44c0-1.72-1.4-3.12-3.12-3.12zm-43.68 124.8v-6.24c.008 0 2.578-.044 5.003-1.312 2.932-1.532 4.357-4.165 4.357-8.048v-74.88c0-6.273 2.829-11.143 7.965-13.71 3.672-1.837 7.24-1.89 7.635-1.89l.017 6.24c-.026 0-2.595.044-5.02 1.312-2.932 1.532-4.357 4.165-4.357 8.048v74.88c0 6.273-2.829 11.143-7.965 13.71-3.672 1.837-7.24 1.89-7.635 1.89"></path></svg></svg>